<mxfile host="65bd71144e">
    <diagram id="OXcnTQVsqNVhh4Z81EpF" name="Page-1">
        <mxGraphModel dx="612" dy="479" grid="1" gridSize="10" guides="1" tooltips="1" connect="1" arrows="1" fold="1" page="1" pageScale="1" pageWidth="850" pageHeight="1100" math="0" shadow="0">
            <root>
                <mxCell id="0"/>
                <mxCell id="1" parent="0"/>
                <mxCell id="2" value="&lt;font size=&quot;1&quot; color=&quot;#000000&quot;&gt;&lt;b style=&quot;font-size: 20px&quot;&gt;START&lt;/b&gt;&lt;/font&gt;" style="ellipse;whiteSpace=wrap;html=1;fillColor=#fad9d5;strokeColor=#000000;strokeWidth=3;" vertex="1" parent="1">
                    <mxGeometry x="80" y="10" width="120" height="70" as="geometry"/>
                </mxCell>
                <mxCell id="3" value="&lt;font style=&quot;font-size: 14px&quot; color=&quot;#000000&quot;&gt;Get min, max,&lt;br&gt;interval&lt;/font&gt;" style="shape=parallelogram;perimeter=parallelogramPerimeter;whiteSpace=wrap;html=1;fixedSize=1;strokeColor=#000000;strokeWidth=3;fillColor=#647687;fontColor=#ffffff;" vertex="1" parent="1">
                    <mxGeometry x="75" y="110" width="130" height="60" as="geometry"/>
                </mxCell>
                <mxCell id="4" value="&lt;font style=&quot;font-size: 14px&quot; color=&quot;#000000&quot;&gt;(max-min)mod&lt;br&gt;interval =0&lt;/font&gt;" style="html=1;whiteSpace=wrap;aspect=fixed;shape=isoRectangle;strokeColor=#000000;fillColor=#ffcc99;strokeWidth=3;" vertex="1" parent="1">
                    <mxGeometry x="65" y="210" width="150" height="90" as="geometry"/>
                </mxCell>
                <mxCell id="5" value="&lt;font style=&quot;font-size: 14px&quot; color=&quot;#000000&quot;&gt;n&lt;br&gt;=&lt;br&gt;(max-min)/interval&lt;/font&gt;" style="rounded=1;whiteSpace=wrap;html=1;fillColor=#ffff88;strokeColor=#000000;strokeWidth=3;" vertex="1" parent="1">
                    <mxGeometry x="75" y="340" width="130" height="60" as="geometry"/>
                </mxCell>
                <mxCell id="6" value="&lt;font color=&quot;#000000&quot;&gt;i = 1&lt;/font&gt;" style="rounded=1;whiteSpace=wrap;html=1;fontSize=14;fillColor=#ffff88;strokeColor=#000000;strokeWidth=3;" vertex="1" parent="1">
                    <mxGeometry x="80" y="440" width="120" height="60" as="geometry"/>
                </mxCell>
                <mxCell id="7" value="&lt;font color=&quot;#000000&quot;&gt;sum = 0&lt;/font&gt;" style="rounded=1;whiteSpace=wrap;html=1;fontSize=14;fillColor=#ffff88;strokeColor=#000000;strokeWidth=3;" vertex="1" parent="1">
                    <mxGeometry x="80" y="540" width="120" height="60" as="geometry"/>
                </mxCell>
                <mxCell id="8" value="&lt;font color=&quot;#000000&quot;&gt;&lt;span style=&quot;font-size: 14px&quot;&gt;Print&lt;br&gt;&lt;/span&gt;invalid interval&lt;/font&gt;" style="shape=parallelogram;perimeter=parallelogramPerimeter;whiteSpace=wrap;html=1;fixedSize=1;fillColor=#647687;strokeColor=#000000;fontColor=#ffffff;strokeWidth=3;" vertex="1" parent="1">
                    <mxGeometry x="275" y="225" width="130" height="60" as="geometry"/>
                </mxCell>
                <mxCell id="9" value="&lt;span style=&quot;font-size: 14px&quot;&gt;&lt;font color=&quot;#000000&quot;&gt;i &amp;lt;= n&lt;/font&gt;&lt;/span&gt;" style="html=1;whiteSpace=wrap;aspect=fixed;shape=isoRectangle;fillColor=#ffcc99;strokeColor=#000000;strokeWidth=3;" vertex="1" parent="1">
                    <mxGeometry x="265" y="325" width="150" height="90" as="geometry"/>
                </mxCell>
                <mxCell id="23" style="edgeStyle=none;html=1;exitX=0.5;exitY=1;exitDx=0;exitDy=0;entryX=0.5;entryY=0;entryDx=0;entryDy=0;fontSize=14;" edge="1" parent="1" source="10" target="11">
                    <mxGeometry relative="1" as="geometry"/>
                </mxCell>
                <mxCell id="10" value="&lt;font color=&quot;#000000&quot;&gt;sum&amp;nbsp;&lt;br&gt;=&lt;br&gt;sum + min&lt;/font&gt;" style="rounded=1;whiteSpace=wrap;html=1;fontSize=14;fillColor=#ffff88;strokeColor=#000000;strokeWidth=3;" vertex="1" parent="1">
                    <mxGeometry x="280" y="440" width="120" height="60" as="geometry"/>
                </mxCell>
                <mxCell id="24" style="edgeStyle=none;html=1;exitX=0.5;exitY=1;exitDx=0;exitDy=0;entryX=0.5;entryY=0;entryDx=0;entryDy=0;fontSize=14;" edge="1" parent="1" source="11" target="12">
                    <mxGeometry relative="1" as="geometry"/>
                </mxCell>
                <mxCell id="11" value="&lt;font color=&quot;#000000&quot;&gt;min&lt;br&gt;=&lt;br&gt;min + interval&lt;/font&gt;" style="rounded=1;whiteSpace=wrap;html=1;fontSize=14;fillColor=#ffff88;strokeColor=#000000;strokeWidth=3;" vertex="1" parent="1">
                    <mxGeometry x="280" y="540" width="120" height="60" as="geometry"/>
                </mxCell>
                <mxCell id="12" value="&lt;font color=&quot;#000000&quot;&gt;i = i+1&lt;/font&gt;" style="rounded=1;whiteSpace=wrap;html=1;fontSize=14;fillColor=#ffff88;strokeColor=#000000;strokeWidth=3;" vertex="1" parent="1">
                    <mxGeometry x="280" y="640" width="120" height="60" as="geometry"/>
                </mxCell>
                <mxCell id="13" value="&lt;font size=&quot;1&quot; color=&quot;#000000&quot;&gt;&lt;b style=&quot;font-size: 20px&quot;&gt;END&lt;/b&gt;&lt;/font&gt;" style="ellipse;whiteSpace=wrap;html=1;fillColor=#ffcccc;strokeColor=#000000;strokeWidth=3;" vertex="1" parent="1">
                    <mxGeometry x="280" y="740" width="120" height="70" as="geometry"/>
                </mxCell>
                <mxCell id="26" style="edgeStyle=none;html=1;fontSize=14;exitX=0.997;exitY=0.499;exitDx=0;exitDy=0;exitPerimeter=0;" edge="1" parent="1" source="9" target="14">
                    <mxGeometry relative="1" as="geometry">
                        <mxPoint x="420" y="360" as="targetPoint"/>
                        <mxPoint x="420" y="370" as="sourcePoint"/>
                    </mxGeometry>
                </mxCell>
                <mxCell id="14" value="&lt;span style=&quot;font-size: 14px&quot;&gt;&lt;font color=&quot;#000000&quot;&gt;Print sum&lt;/font&gt;&lt;br&gt;&lt;/span&gt;" style="shape=parallelogram;perimeter=parallelogramPerimeter;whiteSpace=wrap;html=1;fixedSize=1;fillColor=#647687;fontColor=#ffffff;strokeColor=#000000;strokeWidth=3;" vertex="1" parent="1">
                    <mxGeometry x="450" y="340" width="130" height="60" as="geometry"/>
                </mxCell>
                <mxCell id="15" value="" style="endArrow=classic;html=1;fontSize=14;exitX=0.5;exitY=1;exitDx=0;exitDy=0;entryX=0.5;entryY=0;entryDx=0;entryDy=0;" edge="1" parent="1" source="2" target="3">
                    <mxGeometry width="50" height="50" relative="1" as="geometry">
                        <mxPoint x="250" y="130" as="sourcePoint"/>
                        <mxPoint x="300" y="80" as="targetPoint"/>
                    </mxGeometry>
                </mxCell>
                <mxCell id="17" value="" style="endArrow=classic;html=1;fontSize=14;exitX=0.5;exitY=1;exitDx=0;exitDy=0;" edge="1" parent="1" source="3" target="4">
                    <mxGeometry width="50" height="50" relative="1" as="geometry">
                        <mxPoint x="250" y="190" as="sourcePoint"/>
                        <mxPoint x="140" y="210" as="targetPoint"/>
                    </mxGeometry>
                </mxCell>
                <mxCell id="19" value="" style="endArrow=classic;html=1;fontSize=14;exitX=0.5;exitY=1;exitDx=0;exitDy=0;entryX=0.5;entryY=0;entryDx=0;entryDy=0;" edge="1" parent="1" source="5" target="6">
                    <mxGeometry width="50" height="50" relative="1" as="geometry">
                        <mxPoint x="250" y="460" as="sourcePoint"/>
                        <mxPoint x="300" y="410" as="targetPoint"/>
                    </mxGeometry>
                </mxCell>
                <mxCell id="20" value="" style="endArrow=classic;html=1;fontSize=14;exitX=0.5;exitY=1;exitDx=0;exitDy=0;entryX=0.5;entryY=0;entryDx=0;entryDy=0;" edge="1" parent="1" source="6" target="7">
                    <mxGeometry width="50" height="50" relative="1" as="geometry">
                        <mxPoint x="250" y="530" as="sourcePoint"/>
                        <mxPoint x="300" y="480" as="targetPoint"/>
                    </mxGeometry>
                </mxCell>
                <mxCell id="22" value="" style="endArrow=classic;html=1;fontSize=14;exitX=0.501;exitY=0.966;exitDx=0;exitDy=0;exitPerimeter=0;entryX=0.5;entryY=0;entryDx=0;entryDy=0;" edge="1" parent="1" source="9" target="10">
                    <mxGeometry width="50" height="50" relative="1" as="geometry">
                        <mxPoint x="330" y="430" as="sourcePoint"/>
                        <mxPoint x="336" y="440" as="targetPoint"/>
                    </mxGeometry>
                </mxCell>
                <mxCell id="31" value="" style="endArrow=classic;html=1;fontSize=14;sourcePerimeterSpacing=8;targetPerimeterSpacing=5;strokeWidth=1;exitX=0.501;exitY=0.972;exitDx=0;exitDy=0;exitPerimeter=0;entryX=0.5;entryY=0;entryDx=0;entryDy=0;" edge="1" parent="1" source="4" target="5">
                    <mxGeometry width="50" height="50" relative="1" as="geometry">
                        <mxPoint x="130" y="300" as="sourcePoint"/>
                        <mxPoint x="180" y="250" as="targetPoint"/>
                    </mxGeometry>
                </mxCell>
                <mxCell id="32" value="" style="endArrow=classic;html=1;fontSize=14;sourcePerimeterSpacing=8;targetPerimeterSpacing=5;strokeWidth=1;exitX=0.994;exitY=0.505;exitDx=0;exitDy=0;exitPerimeter=0;entryX=0;entryY=0.5;entryDx=0;entryDy=0;" edge="1" parent="1" source="4" target="8">
                    <mxGeometry width="50" height="50" relative="1" as="geometry">
                        <mxPoint x="250" y="300" as="sourcePoint"/>
                        <mxPoint x="300" y="250" as="targetPoint"/>
                    </mxGeometry>
                </mxCell>
                <mxCell id="35" value="" style="endArrow=none;html=1;fontSize=14;sourcePerimeterSpacing=8;targetPerimeterSpacing=5;strokeWidth=1;exitX=0.5;exitY=0;exitDx=0;exitDy=0;" edge="1" parent="1" source="8">
                    <mxGeometry width="50" height="50" relative="1" as="geometry">
                        <mxPoint x="250" y="160" as="sourcePoint"/>
                        <mxPoint x="340" y="50" as="targetPoint"/>
                    </mxGeometry>
                </mxCell>
                <mxCell id="40" value="" style="endArrow=classic;html=1;fontSize=14;sourcePerimeterSpacing=8;targetPerimeterSpacing=5;strokeWidth=1;entryX=1;entryY=0.571;entryDx=0;entryDy=0;entryPerimeter=0;" edge="1" parent="1" target="2">
                    <mxGeometry width="50" height="50" relative="1" as="geometry">
                        <mxPoint x="340" y="50" as="sourcePoint"/>
                        <mxPoint x="280" y="60" as="targetPoint"/>
                    </mxGeometry>
                </mxCell>
                <mxCell id="41" value="" style="endArrow=none;html=1;fontSize=14;sourcePerimeterSpacing=8;targetPerimeterSpacing=5;strokeWidth=1;entryX=0.462;entryY=1;entryDx=0;entryDy=0;entryPerimeter=0;" edge="1" parent="1" target="14">
                    <mxGeometry width="50" height="50" relative="1" as="geometry">
                        <mxPoint x="510" y="720" as="sourcePoint"/>
                        <mxPoint x="520" y="400" as="targetPoint"/>
                    </mxGeometry>
                </mxCell>
                <mxCell id="42" value="" style="endArrow=none;html=1;fontSize=14;sourcePerimeterSpacing=8;targetPerimeterSpacing=5;strokeWidth=1;" edge="1" parent="1">
                    <mxGeometry width="50" height="50" relative="1" as="geometry">
                        <mxPoint x="340" y="720" as="sourcePoint"/>
                        <mxPoint x="510" y="720" as="targetPoint"/>
                    </mxGeometry>
                </mxCell>
                <mxCell id="43" value="" style="endArrow=classic;html=1;fontSize=14;sourcePerimeterSpacing=8;targetPerimeterSpacing=5;strokeWidth=1;entryX=0.5;entryY=0;entryDx=0;entryDy=0;" edge="1" parent="1" target="13">
                    <mxGeometry width="50" height="50" relative="1" as="geometry">
                        <mxPoint x="340" y="720" as="sourcePoint"/>
                        <mxPoint x="400" y="750" as="targetPoint"/>
                    </mxGeometry>
                </mxCell>
                <mxCell id="44" value="" style="endArrow=none;html=1;fontSize=14;sourcePerimeterSpacing=8;targetPerimeterSpacing=5;strokeWidth=1;exitX=1;exitY=0.5;exitDx=0;exitDy=0;" edge="1" parent="1" source="7">
                    <mxGeometry width="50" height="50" relative="1" as="geometry">
                        <mxPoint x="310" y="540" as="sourcePoint"/>
                        <mxPoint x="240" y="570" as="targetPoint"/>
                    </mxGeometry>
                </mxCell>
                <mxCell id="45" value="" style="endArrow=none;html=1;fontSize=14;sourcePerimeterSpacing=8;targetPerimeterSpacing=5;strokeWidth=1;" edge="1" parent="1">
                    <mxGeometry width="50" height="50" relative="1" as="geometry">
                        <mxPoint x="240" y="570" as="sourcePoint"/>
                        <mxPoint x="240" y="370" as="targetPoint"/>
                    </mxGeometry>
                </mxCell>
                <mxCell id="46" value="" style="endArrow=none;html=1;fontSize=14;sourcePerimeterSpacing=8;targetPerimeterSpacing=5;strokeWidth=1;" edge="1" parent="1">
                    <mxGeometry width="50" height="50" relative="1" as="geometry">
                        <mxPoint x="240" y="570" as="sourcePoint"/>
                        <mxPoint x="240" y="670" as="targetPoint"/>
                    </mxGeometry>
                </mxCell>
                <mxCell id="47" value="" style="endArrow=classic;html=1;fontSize=14;sourcePerimeterSpacing=8;targetPerimeterSpacing=5;strokeWidth=1;entryX=0;entryY=0.5;entryDx=0;entryDy=0;" edge="1" parent="1" target="12">
                    <mxGeometry width="50" height="50" relative="1" as="geometry">
                        <mxPoint x="240" y="670" as="sourcePoint"/>
                        <mxPoint x="360" y="560" as="targetPoint"/>
                    </mxGeometry>
                </mxCell>
                <mxCell id="49" value="" style="endArrow=classic;html=1;fontSize=14;sourcePerimeterSpacing=8;targetPerimeterSpacing=5;strokeWidth=1;entryX=-0.009;entryY=0.501;entryDx=0;entryDy=0;entryPerimeter=0;" edge="1" parent="1" target="9">
                    <mxGeometry width="50" height="50" relative="1" as="geometry">
                        <mxPoint x="240" y="370" as="sourcePoint"/>
                        <mxPoint x="310" y="360" as="targetPoint"/>
                    </mxGeometry>
                </mxCell>
                <mxCell id="50" value="No" style="text;strokeColor=none;fillColor=none;align=left;verticalAlign=middle;spacingLeft=4;spacingRight=4;overflow=hidden;points=[[0,0.5],[1,0.5]];portConstraint=eastwest;rotatable=0;fontSize=16;strokeWidth=2;" vertex="1" parent="1">
                    <mxGeometry x="215" y="225" width="35" height="30" as="geometry"/>
                </mxCell>
                <mxCell id="51" value="No" style="text;strokeColor=none;fillColor=none;align=left;verticalAlign=middle;spacingLeft=4;spacingRight=4;overflow=hidden;points=[[0,0.5],[1,0.5]];portConstraint=eastwest;rotatable=0;fontSize=16;strokeWidth=2;" vertex="1" parent="1">
                    <mxGeometry x="410" y="340" width="40" height="30" as="geometry"/>
                </mxCell>
                <mxCell id="52" value="Yes" style="text;strokeColor=none;fillColor=none;align=left;verticalAlign=middle;spacingLeft=4;spacingRight=4;overflow=hidden;points=[[0,0.5],[1,0.5]];portConstraint=eastwest;rotatable=0;fontSize=16;" vertex="1" parent="1">
                    <mxGeometry x="150" y="300" width="40" height="30" as="geometry"/>
                </mxCell>
                <mxCell id="53" value="Yes" style="text;strokeColor=none;fillColor=none;align=left;verticalAlign=middle;spacingLeft=4;spacingRight=4;overflow=hidden;points=[[0,0.5],[1,0.5]];portConstraint=eastwest;rotatable=0;fontSize=16;" vertex="1" parent="1">
                    <mxGeometry x="350" y="410" width="40" height="30" as="geometry"/>
                </mxCell>
            </root>
        </mxGraphModel>
    </diagram>
</mxfile>